<svg
   id="logo"
   width="32"
   height="32"
   viewBox="-2 -2 30 30"
   fill="none"
   xmlns="http://www.w3.org/2000/svg"
   xmlns:svg="http://www.w3.org/2000/svg">
  <defs />
  <g
   id="layer1">
   <path class="cls-1" d="M19.52,5.65H12.84A6.91,6.91,0,0,0,5.9,12.57v6.68a6.91,6.91,0,0,0,6.91,6.91h6.68a6.91,6.91,0,0,0,6.91-6.92V12.57A6.91,6.91,0,0,0,19.52,5.65Zm-6.75,7.47A2,2,0,1,1,13,10.6,2,2,0,0,1,12.77,13.12Zm6.63,9.69a3.5,3.5,0,1,1,3.5-3.5A3.5,3.5,0,0,1,19.4,22.81Z" fill="none" stroke="#424242" />
   <circle class="cls-1" cx="3.65" cy="4.06" r="2.75" fill="none" stroke="#424242" />
   </g>
</svg>
